<mxfile host="app.diagrams.net" modified="2020-09-21T07:38:08.084Z" agent="5.0 (Windows NT 10.0; Win64; x64) AppleWebKit/537.36 (KHTML, like Gecko) Chrome/85.0.4183.102 Safari/537.36" etag="Gg97j1od84ayrrbpngBb" version="13.7.3" type="github">
  <diagram id="C5RBs43oDa-KdzZeNtuy" name="Page-1">
    <mxGraphModel dx="2522" dy="450" grid="1" gridSize="10" guides="1" tooltips="1" connect="1" arrows="1" fold="1" page="1" pageScale="1" pageWidth="827" pageHeight="1169" background="none" math="0" shadow="0">
      <root>
        <mxCell id="WIyWlLk6GJQsqaUBKTNV-0" />
        <mxCell id="WIyWlLk6GJQsqaUBKTNV-1" parent="WIyWlLk6GJQsqaUBKTNV-0" />
        <mxCell id="8CnQwpFaGnil6D6pqTt6-14" value="" style="edgeStyle=orthogonalEdgeStyle;rounded=0;orthogonalLoop=1;jettySize=auto;html=1;" edge="1" parent="WIyWlLk6GJQsqaUBKTNV-1" source="WIyWlLk6GJQsqaUBKTNV-3" target="8CnQwpFaGnil6D6pqTt6-12">
          <mxGeometry relative="1" as="geometry" />
        </mxCell>
        <mxCell id="WIyWlLk6GJQsqaUBKTNV-3" value="&lt;b&gt;Call Resource Service&amp;nbsp;&lt;/b&gt;&lt;br&gt;&lt;div style=&quot;text-align: left&quot;&gt;Get Buildings in the Areas&lt;/div&gt;" style="rounded=1;whiteSpace=wrap;html=1;fontSize=12;glass=0;strokeWidth=1;shadow=0;align=center;" parent="WIyWlLk6GJQsqaUBKTNV-1" vertex="1">
          <mxGeometry x="-1060" y="60" width="180" height="40" as="geometry" />
        </mxCell>
        <mxCell id="WIyWlLk6GJQsqaUBKTNV-4" value="Yes" style="rounded=0;html=1;jettySize=auto;orthogonalLoop=1;fontSize=11;endArrow=block;endFill=0;endSize=8;strokeWidth=1;shadow=0;labelBackgroundColor=none;edgeStyle=orthogonalEdgeStyle;" parent="WIyWlLk6GJQsqaUBKTNV-1" target="WIyWlLk6GJQsqaUBKTNV-10" edge="1">
          <mxGeometry y="20" relative="1" as="geometry">
            <mxPoint as="offset" />
            <mxPoint x="250" y="320" as="sourcePoint" />
          </mxGeometry>
        </mxCell>
        <mxCell id="WIyWlLk6GJQsqaUBKTNV-5" value="No" style="edgeStyle=orthogonalEdgeStyle;rounded=0;html=1;jettySize=auto;orthogonalLoop=1;fontSize=11;endArrow=block;endFill=0;endSize=8;strokeWidth=1;shadow=0;labelBackgroundColor=none;" parent="WIyWlLk6GJQsqaUBKTNV-1" source="WIyWlLk6GJQsqaUBKTNV-6" edge="1">
          <mxGeometry y="10" relative="1" as="geometry">
            <mxPoint as="offset" />
            <mxPoint x="380" y="230" as="targetPoint" />
          </mxGeometry>
        </mxCell>
        <mxCell id="WIyWlLk6GJQsqaUBKTNV-8" value="No" style="rounded=0;html=1;jettySize=auto;orthogonalLoop=1;fontSize=11;endArrow=block;endFill=0;endSize=8;strokeWidth=1;shadow=0;labelBackgroundColor=none;edgeStyle=orthogonalEdgeStyle;" parent="WIyWlLk6GJQsqaUBKTNV-1" target="WIyWlLk6GJQsqaUBKTNV-11" edge="1">
          <mxGeometry x="0.3333" y="20" relative="1" as="geometry">
            <mxPoint as="offset" />
            <mxPoint x="220" y="370" as="sourcePoint" />
          </mxGeometry>
        </mxCell>
        <mxCell id="WIyWlLk6GJQsqaUBKTNV-9" value="Yes" style="edgeStyle=orthogonalEdgeStyle;rounded=0;html=1;jettySize=auto;orthogonalLoop=1;fontSize=11;endArrow=block;endFill=0;endSize=8;strokeWidth=1;shadow=0;labelBackgroundColor=none;" parent="WIyWlLk6GJQsqaUBKTNV-1" target="WIyWlLk6GJQsqaUBKTNV-12" edge="1">
          <mxGeometry y="10" relative="1" as="geometry">
            <mxPoint as="offset" />
            <mxPoint x="270" y="330" as="sourcePoint" />
          </mxGeometry>
        </mxCell>
        <mxCell id="8CnQwpFaGnil6D6pqTt6-3" value="" style="edgeStyle=orthogonalEdgeStyle;rounded=0;orthogonalLoop=1;jettySize=auto;html=1;exitX=1;exitY=0.5;exitDx=0;exitDy=0;" edge="1" parent="WIyWlLk6GJQsqaUBKTNV-1" source="8CnQwpFaGnil6D6pqTt6-2" target="WIyWlLk6GJQsqaUBKTNV-3">
          <mxGeometry relative="1" as="geometry" />
        </mxCell>
        <mxCell id="8CnQwpFaGnil6D6pqTt6-37" value="" style="edgeStyle=orthogonalEdgeStyle;rounded=0;orthogonalLoop=1;jettySize=auto;html=1;entryX=0.5;entryY=0;entryDx=0;entryDy=0;" edge="1" parent="WIyWlLk6GJQsqaUBKTNV-1" source="8CnQwpFaGnil6D6pqTt6-2" target="8CnQwpFaGnil6D6pqTt6-24">
          <mxGeometry relative="1" as="geometry">
            <Array as="points">
              <mxPoint x="-1090" y="105" />
              <mxPoint x="-1090" y="190" />
              <mxPoint x="-1115" y="190" />
            </Array>
          </mxGeometry>
        </mxCell>
        <mxCell id="8CnQwpFaGnil6D6pqTt6-2" value="&lt;b&gt;Search Request&amp;nbsp;&lt;/b&gt;&lt;br&gt;&lt;div style=&quot;text-align: left&quot;&gt;Country*&lt;/div&gt;&lt;div style=&quot;text-align: left&quot;&gt;City*&lt;/div&gt;&lt;div style=&quot;text-align: left&quot;&gt;Available From*&lt;/div&gt;&lt;div style=&quot;text-align: left&quot;&gt;Avaialbe To*&lt;/div&gt;&lt;div style=&quot;text-align: left&quot;&gt;Areas&lt;/div&gt;&lt;div style=&quot;text-align: left&quot;&gt;Capacity&lt;/div&gt;&lt;div style=&quot;text-align: left&quot;&gt;Amenities&lt;/div&gt;" style="rounded=1;whiteSpace=wrap;html=1;" vertex="1" parent="WIyWlLk6GJQsqaUBKTNV-1">
          <mxGeometry x="-1240" y="40" width="120" height="130" as="geometry" />
        </mxCell>
        <mxCell id="8CnQwpFaGnil6D6pqTt6-13" value="" style="edgeStyle=orthogonalEdgeStyle;rounded=0;orthogonalLoop=1;jettySize=auto;html=1;" edge="1" parent="WIyWlLk6GJQsqaUBKTNV-1" source="8CnQwpFaGnil6D6pqTt6-5" target="8CnQwpFaGnil6D6pqTt6-12">
          <mxGeometry relative="1" as="geometry" />
        </mxCell>
        <mxCell id="8CnQwpFaGnil6D6pqTt6-5" value="Get Meeting Rooms in city" style="rounded=1;whiteSpace=wrap;html=1;" vertex="1" parent="WIyWlLk6GJQsqaUBKTNV-1">
          <mxGeometry x="-1060" y="110" width="180" height="40" as="geometry" />
        </mxCell>
        <mxCell id="8CnQwpFaGnil6D6pqTt6-11" value="" style="edgeStyle=orthogonalEdgeStyle;rounded=0;orthogonalLoop=1;jettySize=auto;html=1;entryX=0;entryY=0.5;entryDx=0;entryDy=0;exitX=1;exitY=0.5;exitDx=0;exitDy=0;" edge="1" parent="WIyWlLk6GJQsqaUBKTNV-1" source="8CnQwpFaGnil6D6pqTt6-2" target="8CnQwpFaGnil6D6pqTt6-5">
          <mxGeometry relative="1" as="geometry">
            <mxPoint x="-1110" y="115" as="sourcePoint" />
            <mxPoint x="-1050" y="95" as="targetPoint" />
          </mxGeometry>
        </mxCell>
        <mxCell id="8CnQwpFaGnil6D6pqTt6-16" value="" style="edgeStyle=orthogonalEdgeStyle;rounded=0;orthogonalLoop=1;jettySize=auto;html=1;" edge="1" parent="WIyWlLk6GJQsqaUBKTNV-1" source="8CnQwpFaGnil6D6pqTt6-12" target="8CnQwpFaGnil6D6pqTt6-15">
          <mxGeometry relative="1" as="geometry" />
        </mxCell>
        <mxCell id="8CnQwpFaGnil6D6pqTt6-34" value="" style="edgeStyle=orthogonalEdgeStyle;rounded=0;orthogonalLoop=1;jettySize=auto;html=1;" edge="1" parent="WIyWlLk6GJQsqaUBKTNV-1" source="8CnQwpFaGnil6D6pqTt6-12" target="8CnQwpFaGnil6D6pqTt6-33">
          <mxGeometry relative="1" as="geometry" />
        </mxCell>
        <mxCell id="8CnQwpFaGnil6D6pqTt6-12" value="Buildings/Meeting Rooms" style="rhombus;whiteSpace=wrap;html=1;" vertex="1" parent="WIyWlLk6GJQsqaUBKTNV-1">
          <mxGeometry x="-820" y="50" width="130" height="110" as="geometry" />
        </mxCell>
        <mxCell id="8CnQwpFaGnil6D6pqTt6-18" value="" style="edgeStyle=orthogonalEdgeStyle;rounded=0;orthogonalLoop=1;jettySize=auto;html=1;" edge="1" parent="WIyWlLk6GJQsqaUBKTNV-1" source="8CnQwpFaGnil6D6pqTt6-15" target="8CnQwpFaGnil6D6pqTt6-17">
          <mxGeometry relative="1" as="geometry" />
        </mxCell>
        <mxCell id="8CnQwpFaGnil6D6pqTt6-15" value="Primary Set of Buildings in City/Area" style="rounded=0;whiteSpace=wrap;html=1;" vertex="1" parent="WIyWlLk6GJQsqaUBKTNV-1">
          <mxGeometry x="-630" y="75" width="120" height="60" as="geometry" />
        </mxCell>
        <mxCell id="8CnQwpFaGnil6D6pqTt6-22" value="" style="edgeStyle=orthogonalEdgeStyle;rounded=0;orthogonalLoop=1;jettySize=auto;html=1;entryX=1;entryY=0.5;entryDx=0;entryDy=0;" edge="1" parent="WIyWlLk6GJQsqaUBKTNV-1" source="8CnQwpFaGnil6D6pqTt6-17" target="8CnQwpFaGnil6D6pqTt6-21">
          <mxGeometry relative="1" as="geometry">
            <Array as="points">
              <mxPoint x="-270" y="105" />
              <mxPoint x="-270" y="315" />
            </Array>
          </mxGeometry>
        </mxCell>
        <mxCell id="8CnQwpFaGnil6D6pqTt6-23" value="" style="edgeStyle=orthogonalEdgeStyle;rounded=0;orthogonalLoop=1;jettySize=auto;html=1;" edge="1" parent="WIyWlLk6GJQsqaUBKTNV-1" source="8CnQwpFaGnil6D6pqTt6-17" target="8CnQwpFaGnil6D6pqTt6-19">
          <mxGeometry relative="1" as="geometry" />
        </mxCell>
        <mxCell id="8CnQwpFaGnil6D6pqTt6-17" value="If Buildings &amp;gt; limit" style="rhombus;whiteSpace=wrap;html=1;rounded=0;" vertex="1" parent="WIyWlLk6GJQsqaUBKTNV-1">
          <mxGeometry x="-473" y="60" width="110" height="90" as="geometry" />
        </mxCell>
        <mxCell id="8CnQwpFaGnil6D6pqTt6-49" style="edgeStyle=orthogonalEdgeStyle;rounded=0;orthogonalLoop=1;jettySize=auto;html=1;exitX=0;exitY=0.5;exitDx=0;exitDy=0;shape=link;fillColor=#fff2cc;strokeColor=#d6b656;" edge="1" parent="WIyWlLk6GJQsqaUBKTNV-1" source="8CnQwpFaGnil6D6pqTt6-19" target="8CnQwpFaGnil6D6pqTt6-25">
          <mxGeometry relative="1" as="geometry">
            <mxPoint x="-550" y="240" as="sourcePoint" />
            <Array as="points">
              <mxPoint x="-526" y="240" />
              <mxPoint x="-890" y="240" />
              <mxPoint x="-890" y="270" />
            </Array>
          </mxGeometry>
        </mxCell>
        <mxCell id="8CnQwpFaGnil6D6pqTt6-19" value="&lt;p class=&quot;MsoNormal&quot; style=&quot;margin-bottom: 0.0001pt&quot;&gt;&lt;/p&gt;&lt;div style=&quot;text-align: center&quot;&gt;&lt;span&gt;Fragment buildings into chunks and Frame OfficeRnd&amp;nbsp;&lt;/span&gt;&lt;span&gt;Availability Req with building Ids, available From, available To and Capacity,&amp;nbsp;&lt;/span&gt;&lt;span&gt;Amenities&lt;/span&gt;&lt;/div&gt;&lt;p&gt;&lt;/p&gt;" style="whiteSpace=wrap;html=1;rounded=0;align=left;" vertex="1" parent="WIyWlLk6GJQsqaUBKTNV-1">
          <mxGeometry x="-526" y="201" width="216" height="75" as="geometry" />
        </mxCell>
        <mxCell id="8CnQwpFaGnil6D6pqTt6-48" style="edgeStyle=orthogonalEdgeStyle;rounded=0;orthogonalLoop=1;jettySize=auto;html=1;entryX=1;entryY=0.5;entryDx=0;entryDy=0;shape=link;fillColor=#fff2cc;strokeColor=#d6b656;" edge="1" parent="WIyWlLk6GJQsqaUBKTNV-1" source="8CnQwpFaGnil6D6pqTt6-21" target="8CnQwpFaGnil6D6pqTt6-26">
          <mxGeometry relative="1" as="geometry" />
        </mxCell>
        <mxCell id="8CnQwpFaGnil6D6pqTt6-21" value="&lt;p class=&quot;MsoNormal&quot; style=&quot;margin-bottom: 0.0001pt&quot;&gt;Req OfficeRnd for Availability with buildings, available From, available to and capacity, Amenities&lt;/p&gt;" style="whiteSpace=wrap;html=1;rounded=0;align=center;" vertex="1" parent="WIyWlLk6GJQsqaUBKTNV-1">
          <mxGeometry x="-526" y="285" width="216" height="60" as="geometry" />
        </mxCell>
        <mxCell id="8CnQwpFaGnil6D6pqTt6-38" value="" style="edgeStyle=orthogonalEdgeStyle;rounded=0;orthogonalLoop=1;jettySize=auto;html=1;exitX=0;exitY=0.5;exitDx=0;exitDy=0;entryX=0;entryY=0.5;entryDx=0;entryDy=0;" edge="1" parent="WIyWlLk6GJQsqaUBKTNV-1" source="8CnQwpFaGnil6D6pqTt6-24" target="8CnQwpFaGnil6D6pqTt6-25">
          <mxGeometry relative="1" as="geometry">
            <Array as="points">
              <mxPoint x="-1250" y="225" />
              <mxPoint x="-1250" y="270" />
            </Array>
          </mxGeometry>
        </mxCell>
        <mxCell id="8CnQwpFaGnil6D6pqTt6-40" value="" style="edgeStyle=orthogonalEdgeStyle;rounded=0;orthogonalLoop=1;jettySize=auto;html=1;" edge="1" parent="WIyWlLk6GJQsqaUBKTNV-1" source="8CnQwpFaGnil6D6pqTt6-24" target="8CnQwpFaGnil6D6pqTt6-26">
          <mxGeometry relative="1" as="geometry">
            <Array as="points">
              <mxPoint x="-1250" y="225" />
              <mxPoint x="-1250" y="315" />
            </Array>
          </mxGeometry>
        </mxCell>
        <mxCell id="8CnQwpFaGnil6D6pqTt6-24" value="Instansiate OfficeRnd Instance with Country" style="rounded=0;whiteSpace=wrap;html=1;" vertex="1" parent="WIyWlLk6GJQsqaUBKTNV-1">
          <mxGeometry x="-1240" y="205" width="250" height="40" as="geometry" />
        </mxCell>
        <mxCell id="8CnQwpFaGnil6D6pqTt6-25" value="&lt;p class=&quot;MsoNormal&quot; align=&quot;center&quot;&gt;OfficeRnd concurrent Requests for availability&lt;/p&gt;" style="rounded=1;whiteSpace=wrap;html=1;" vertex="1" parent="WIyWlLk6GJQsqaUBKTNV-1">
          <mxGeometry x="-1230" y="250" width="250" height="40" as="geometry" />
        </mxCell>
        <mxCell id="8CnQwpFaGnil6D6pqTt6-43" value="" style="edgeStyle=orthogonalEdgeStyle;rounded=0;orthogonalLoop=1;jettySize=auto;html=1;shape=flexArrow;fillColor=#1ba1e2;strokeColor=#006EAF;endWidth=18;endSize=3;width=6;" edge="1" parent="WIyWlLk6GJQsqaUBKTNV-1" source="8CnQwpFaGnil6D6pqTt6-26" target="8CnQwpFaGnil6D6pqTt6-42">
          <mxGeometry relative="1" as="geometry">
            <Array as="points">
              <mxPoint x="-1105" y="380" />
              <mxPoint x="-1105" y="380" />
            </Array>
          </mxGeometry>
        </mxCell>
        <mxCell id="8CnQwpFaGnil6D6pqTt6-46" style="edgeStyle=orthogonalEdgeStyle;rounded=0;orthogonalLoop=1;jettySize=auto;html=1;" edge="1" parent="WIyWlLk6GJQsqaUBKTNV-1" source="8CnQwpFaGnil6D6pqTt6-26" target="8CnQwpFaGnil6D6pqTt6-44">
          <mxGeometry relative="1" as="geometry">
            <Array as="points">
              <mxPoint x="-1105" y="360" />
            </Array>
          </mxGeometry>
        </mxCell>
        <mxCell id="8CnQwpFaGnil6D6pqTt6-26" value="&lt;p class=&quot;MsoNormal&quot; align=&quot;center&quot;&gt;Get Available Meeting Rooms&lt;/p&gt;" style="rounded=1;whiteSpace=wrap;html=1;" vertex="1" parent="WIyWlLk6GJQsqaUBKTNV-1">
          <mxGeometry x="-1230" y="295" width="250" height="40" as="geometry" />
        </mxCell>
        <mxCell id="8CnQwpFaGnil6D6pqTt6-41" value="" style="edgeStyle=orthogonalEdgeStyle;rounded=0;orthogonalLoop=1;jettySize=auto;html=1;" edge="1" parent="WIyWlLk6GJQsqaUBKTNV-1" source="8CnQwpFaGnil6D6pqTt6-28" target="8CnQwpFaGnil6D6pqTt6-26">
          <mxGeometry relative="1" as="geometry">
            <Array as="points">
              <mxPoint x="-890" y="279" />
              <mxPoint x="-890" y="315" />
            </Array>
          </mxGeometry>
        </mxCell>
        <mxCell id="8CnQwpFaGnil6D6pqTt6-45" value="" style="edgeStyle=orthogonalEdgeStyle;rounded=0;orthogonalLoop=1;jettySize=auto;html=1;exitX=1;exitY=0.5;exitDx=0;exitDy=0;" edge="1" parent="WIyWlLk6GJQsqaUBKTNV-1" source="8CnQwpFaGnil6D6pqTt6-33" target="8CnQwpFaGnil6D6pqTt6-44">
          <mxGeometry relative="1" as="geometry">
            <Array as="points">
              <mxPoint x="-600" y="210" />
              <mxPoint x="-600" y="360" />
            </Array>
          </mxGeometry>
        </mxCell>
        <mxCell id="8CnQwpFaGnil6D6pqTt6-28" value="&lt;br&gt;&lt;span style=&quot;color: rgb(0 , 0 , 0) ; font-family: &amp;#34;helvetica&amp;#34; ; font-size: 12px ; font-style: normal ; font-weight: 400 ; letter-spacing: normal ; text-align: center ; text-indent: 0px ; text-transform: none ; word-spacing: 0px&quot;&gt;Req OfficeRnd for Availability without buildings, available&amp;nbsp;&lt;/span&gt;&lt;span style=&quot;font-family: &amp;#34;helvetica&amp;#34;&quot;&gt;from, available to and capacity, amenities&lt;/span&gt;&lt;span style=&quot;color: rgb(0 , 0 , 0) ; font-family: &amp;#34;helvetica&amp;#34; ; font-size: 12px ; font-style: normal ; font-weight: 400 ; letter-spacing: normal ; text-align: center ; text-indent: 0px ; text-transform: none ; word-spacing: 0px&quot;&gt;&lt;br&gt;&lt;/span&gt;" style="whiteSpace=wrap;html=1;" vertex="1" parent="WIyWlLk6GJQsqaUBKTNV-1">
          <mxGeometry x="-867.5" y="249" width="225" height="60" as="geometry" />
        </mxCell>
        <mxCell id="8CnQwpFaGnil6D6pqTt6-33" value="Total Meeting Rooms in City" style="whiteSpace=wrap;html=1;" vertex="1" parent="WIyWlLk6GJQsqaUBKTNV-1">
          <mxGeometry x="-832.5" y="180" width="155" height="40" as="geometry" />
        </mxCell>
        <mxCell id="8CnQwpFaGnil6D6pqTt6-51" value="" style="edgeStyle=orthogonalEdgeStyle;rounded=0;orthogonalLoop=1;jettySize=auto;html=1;shape=link;fillColor=#fff2cc;strokeColor=#d6b656;" edge="1" parent="WIyWlLk6GJQsqaUBKTNV-1" source="8CnQwpFaGnil6D6pqTt6-42" target="8CnQwpFaGnil6D6pqTt6-50">
          <mxGeometry relative="1" as="geometry" />
        </mxCell>
        <mxCell id="8CnQwpFaGnil6D6pqTt6-42" value="Available Meeting Rooms" style="whiteSpace=wrap;html=1;rounded=1;" vertex="1" parent="WIyWlLk6GJQsqaUBKTNV-1">
          <mxGeometry x="-1205" y="385" width="215" height="45" as="geometry" />
        </mxCell>
        <mxCell id="8CnQwpFaGnil6D6pqTt6-47" style="edgeStyle=orthogonalEdgeStyle;rounded=0;orthogonalLoop=1;jettySize=auto;html=1;entryX=1;entryY=0.5;entryDx=0;entryDy=0;" edge="1" parent="WIyWlLk6GJQsqaUBKTNV-1" source="8CnQwpFaGnil6D6pqTt6-44" target="8CnQwpFaGnil6D6pqTt6-42">
          <mxGeometry relative="1" as="geometry">
            <Array as="points">
              <mxPoint x="-792" y="408" />
            </Array>
          </mxGeometry>
        </mxCell>
        <mxCell id="8CnQwpFaGnil6D6pqTt6-66" value="" style="edgeStyle=orthogonalEdgeStyle;rounded=0;orthogonalLoop=1;jettySize=auto;html=1;" edge="1" parent="WIyWlLk6GJQsqaUBKTNV-1" source="8CnQwpFaGnil6D6pqTt6-44" target="8CnQwpFaGnil6D6pqTt6-33">
          <mxGeometry relative="1" as="geometry" />
        </mxCell>
        <mxCell id="8CnQwpFaGnil6D6pqTt6-44" value="Intersection of Available Meeting Rooms" style="whiteSpace=wrap;html=1;" vertex="1" parent="WIyWlLk6GJQsqaUBKTNV-1">
          <mxGeometry x="-907.5" y="335" width="230" height="50" as="geometry" />
        </mxCell>
        <mxCell id="8CnQwpFaGnil6D6pqTt6-54" style="edgeStyle=orthogonalEdgeStyle;rounded=0;orthogonalLoop=1;jettySize=auto;html=1;exitX=1;exitY=0.5;exitDx=0;exitDy=0;" edge="1" parent="WIyWlLk6GJQsqaUBKTNV-1" target="8CnQwpFaGnil6D6pqTt6-52">
          <mxGeometry relative="1" as="geometry">
            <mxPoint x="-835.5" y="555" as="sourcePoint" />
            <mxPoint x="-790" y="555" as="targetPoint" />
            <Array as="points">
              <mxPoint x="-760" y="555" />
              <mxPoint x="-760" y="555" />
            </Array>
          </mxGeometry>
        </mxCell>
        <mxCell id="8CnQwpFaGnil6D6pqTt6-56" value="" style="edgeStyle=orthogonalEdgeStyle;rounded=0;orthogonalLoop=1;jettySize=auto;html=1;" edge="1" parent="WIyWlLk6GJQsqaUBKTNV-1" source="8CnQwpFaGnil6D6pqTt6-50" target="8CnQwpFaGnil6D6pqTt6-55">
          <mxGeometry relative="1" as="geometry">
            <Array as="points">
              <mxPoint x="-806" y="555" />
              <mxPoint x="-806" y="628" />
            </Array>
          </mxGeometry>
        </mxCell>
        <mxCell id="8CnQwpFaGnil6D6pqTt6-59" value="" style="edgeStyle=orthogonalEdgeStyle;rounded=0;orthogonalLoop=1;jettySize=auto;html=1;shape=link;fillColor=#fff2cc;strokeColor=#d6b656;" edge="1" parent="WIyWlLk6GJQsqaUBKTNV-1" source="8CnQwpFaGnil6D6pqTt6-50" target="8CnQwpFaGnil6D6pqTt6-58">
          <mxGeometry relative="1" as="geometry" />
        </mxCell>
        <mxCell id="8CnQwpFaGnil6D6pqTt6-50" value="Available Meeting Rooms &amp;gt; 2" style="rhombus;whiteSpace=wrap;html=1;rounded=1;" vertex="1" parent="WIyWlLk6GJQsqaUBKTNV-1">
          <mxGeometry x="-1012.5" y="500" width="180" height="110" as="geometry" />
        </mxCell>
        <mxCell id="8CnQwpFaGnil6D6pqTt6-60" style="edgeStyle=orthogonalEdgeStyle;rounded=0;orthogonalLoop=1;jettySize=auto;html=1;entryX=0.5;entryY=1;entryDx=0;entryDy=0;fillColor=#dae8fc;strokeColor=#6c8ebf;" edge="1" parent="WIyWlLk6GJQsqaUBKTNV-1" source="8CnQwpFaGnil6D6pqTt6-52" target="8CnQwpFaGnil6D6pqTt6-15">
          <mxGeometry relative="1" as="geometry">
            <Array as="points">
              <mxPoint x="-570" y="560" />
            </Array>
          </mxGeometry>
        </mxCell>
        <mxCell id="8CnQwpFaGnil6D6pqTt6-52" value="&lt;p class=&quot;MsoNormal&quot; align=&quot;center&quot; style=&quot;margin-bottom: 0.0001pt&quot;&gt;Req Resource Service for Alternate buildings to buildings in areas&lt;/p&gt;" style="whiteSpace=wrap;html=1;rounded=1;" vertex="1" parent="WIyWlLk6GJQsqaUBKTNV-1">
          <mxGeometry x="-780" y="530" width="190" height="60" as="geometry" />
        </mxCell>
        <mxCell id="8CnQwpFaGnil6D6pqTt6-61" style="edgeStyle=orthogonalEdgeStyle;rounded=0;orthogonalLoop=1;jettySize=auto;html=1;entryX=1;entryY=0.5;entryDx=0;entryDy=0;fillColor=#dae8fc;strokeColor=#6c8ebf;" edge="1" parent="WIyWlLk6GJQsqaUBKTNV-1" source="8CnQwpFaGnil6D6pqTt6-55" target="8CnQwpFaGnil6D6pqTt6-19">
          <mxGeometry relative="1" as="geometry">
            <mxPoint x="-360" y="570" as="targetPoint" />
          </mxGeometry>
        </mxCell>
        <mxCell id="8CnQwpFaGnil6D6pqTt6-64" style="edgeStyle=orthogonalEdgeStyle;rounded=0;orthogonalLoop=1;jettySize=auto;html=1;fillColor=#dae8fc;strokeColor=#6c8ebf;" edge="1" parent="WIyWlLk6GJQsqaUBKTNV-1" source="8CnQwpFaGnil6D6pqTt6-55">
          <mxGeometry relative="1" as="geometry">
            <mxPoint x="-410" y="350" as="targetPoint" />
          </mxGeometry>
        </mxCell>
        <mxCell id="8CnQwpFaGnil6D6pqTt6-55" value="&lt;p class=&quot;MsoNormal&quot; align=&quot;center&quot;&gt;Find Alternative Time&lt;br/&gt;slots One before the selected time slot and One after the slot&lt;/p&gt;" style="whiteSpace=wrap;html=1;rounded=1;" vertex="1" parent="WIyWlLk6GJQsqaUBKTNV-1">
          <mxGeometry x="-780" y="600" width="192.5" height="55" as="geometry" />
        </mxCell>
        <mxCell id="8CnQwpFaGnil6D6pqTt6-69" value="" style="edgeStyle=orthogonalEdgeStyle;rounded=0;orthogonalLoop=1;jettySize=auto;html=1;" edge="1" parent="WIyWlLk6GJQsqaUBKTNV-1" source="8CnQwpFaGnil6D6pqTt6-58" target="8CnQwpFaGnil6D6pqTt6-68">
          <mxGeometry relative="1" as="geometry" />
        </mxCell>
        <mxCell id="8CnQwpFaGnil6D6pqTt6-71" style="edgeStyle=orthogonalEdgeStyle;rounded=0;orthogonalLoop=1;jettySize=auto;html=1;entryX=1;entryY=0.5;entryDx=0;entryDy=0;fillColor=#dae8fc;strokeColor=#6c8ebf;" edge="1" parent="WIyWlLk6GJQsqaUBKTNV-1" source="8CnQwpFaGnil6D6pqTt6-58" target="8CnQwpFaGnil6D6pqTt6-70">
          <mxGeometry relative="1" as="geometry">
            <Array as="points">
              <mxPoint x="-922" y="746" />
            </Array>
          </mxGeometry>
        </mxCell>
        <mxCell id="8CnQwpFaGnil6D6pqTt6-58" value="&lt;p class=&quot;MsoNormal&quot; align=&quot;center&quot;&gt;Req Correlation&lt;br/&gt;Service for Equivalent CMS/Drupal Id’s of available MRs&lt;/p&gt;" style="whiteSpace=wrap;html=1;rounded=1;" vertex="1" parent="WIyWlLk6GJQsqaUBKTNV-1">
          <mxGeometry x="-1013.75" y="655" width="182.5" height="45" as="geometry" />
        </mxCell>
        <mxCell id="8CnQwpFaGnil6D6pqTt6-68" value="&lt;span style=&quot;font-size: 11.0pt ; line-height: 107% ; font-family: &amp;#34;calibri&amp;#34; , sans-serif&quot;&gt;Primary: Meeting Roomss available in primary set of&amp;nbsp;&lt;/span&gt;" style="whiteSpace=wrap;html=1;rounded=1;" vertex="1" parent="WIyWlLk6GJQsqaUBKTNV-1">
          <mxGeometry x="-1290" y="651.25" width="205" height="52.5" as="geometry" />
        </mxCell>
        <mxCell id="8CnQwpFaGnil6D6pqTt6-70" value="&lt;span style=&quot;font-size: 11.0pt ; line-height: 107% ; font-family: &amp;#34;calibri&amp;#34; , sans-serif&quot;&gt;Near by:&lt;br&gt;Meeting Rooms available in primary set of&amp;nbsp;&lt;/span&gt;" style="whiteSpace=wrap;html=1;rounded=1;" vertex="1" parent="WIyWlLk6GJQsqaUBKTNV-1">
          <mxGeometry x="-1290" y="720" width="205" height="52.5" as="geometry" />
        </mxCell>
      </root>
    </mxGraphModel>
  </diagram>
</mxfile>
